<?xml version="1.0" encoding="UTF-8" standalone="no"?>
<!-- Generator: Adobe Adobe Illustrator 24.2.0, SVG Export Plug-In . SVG Version: 6.00 Build 0)  -->

<svg
   version="1.1"
   id="Layer_1"
   x="0px"
   y="0px"
   width="156.50998"
   height="130.62817"
   viewBox="0 0 156.50998 130.62817"
   xml:space="preserve"
   sodipodi:docname="VisorFolks.svg"
   xmlns:inkscape="http://www.inkscape.org/namespaces/inkscape"
   xmlns:sodipodi="http://sodipodi.sourceforge.net/DTD/sodipodi-0.dtd"
   xmlns="http://www.w3.org/2000/svg"
   xmlns:svg="http://www.w3.org/2000/svg"><defs
   id="defs52" /><sodipodi:namedview
   id="namedview50"
   pagecolor="#ffffff"
   bordercolor="#000000"
   borderopacity="0.25"
   inkscape:showpageshadow="2"
   inkscape:pageopacity="0.0"
   inkscape:pagecheckerboard="0"
   inkscape:deskcolor="#d1d1d1"
   showgrid="false" />
<style
   type="text/css"
   id="style2">
	.st0{fill:url(#SVGID_1_);}
	.st1{opacity:0.7216;fill:url(#SVGID_2_);}
	.st2{fill:url(#SVGID_3_);}
	.st3{opacity:0.9098;}
	.st4{fill:#FFFFFF;stroke:#FFFFFF;stroke-miterlimit:10;}
</style>
<linearGradient
   id="SVGID_1_"
   gradientUnits="userSpaceOnUse"
   x1="187.353"
   y1="113.4703"
   x2="330.353"
   y2="113.4703"
   gradientTransform="translate(237.99899,13.109127)">
	<stop
   offset="0"
   style="stop-color:#5005F2"
   id="stop4" />
	<stop
   offset="1"
   style="stop-color:#05EFF7;stop-opacity:0.8784"
   id="stop6" />
</linearGradient>

<linearGradient
   id="SVGID_2_"
   gradientUnits="userSpaceOnUse"
   x1="198.8625"
   y1="165.69949"
   x2="343.86249"
   y2="165.69949"
   gradientTransform="translate(237.99899,13.109127)">
	<stop
   offset="0"
   style="stop-color:#75A181;stop-opacity:0.1412"
   id="stop11" />
	<stop
   offset="1"
   style="stop-color:#FFFFFF"
   id="stop13" />
</linearGradient>

<linearGradient
   id="SVGID_3_"
   gradientUnits="userSpaceOnUse"
   x1="301.50211"
   y1="126.0639"
   x2="330.95859"
   y2="96.685501"
   gradientTransform="translate(237.99899,13.109127)">
	<stop
   offset="0"
   style="stop-color:#5005F2"
   id="stop18" />
	<stop
   offset="1"
   style="stop-color:#05EBF7;stop-opacity:0.8784"
   id="stop20" />
</linearGradient>


<g
   id="g373"
   transform="translate(-425.34897,-78.97094)"><path
     class="st0"
     d="m 425.34898,98.609127 c 0,-37.28 57.43001,27.540003 96.92001,27.540003 39.49,0 46.08,-64.820003 46.08,-27.540003 0,37.280003 -32.01,67.500003 -71.5,67.500003 -39.49,0 -71.50001,-30.22 -71.50001,-67.500003 z"
     id="path9"
     style="fill:url(#SVGID_1_)" /><ellipse
     class="st1"
     cx="509.35895"
     cy="178.80911"
     rx="72.5"
     ry="8.6999998"
     id="ellipse16"
     style="fill:url(#SVGID_2_)" /><path
     class="st2"
     d="m 547.23899,79.099127 c -23.24,-1.27 -19.34,6.9 -14.29,24.370003 5.05,17.47 2.06,5.45 10.33,37.46 8.27,32 13.77,46.58 13.77,46.58 0,0 -6.56,-24.83 -11.2,-50.03 -2.16,-11.74 -6.9,-28.05 -7.36,-37.47 -0.53,-10.800003 3.62,-13.950003 7.74,-14.720003 9.35,-1.75 27.65,-2.9 29.62,-3.71 3.3,-1.36 -15.77,-1.78 -28.61,-2.48 z"
     id="path23"
     style="fill:url(#SVGID_3_)" /><g
     class="st3"
     id="g45"
     transform="translate(237.99899,13.109127)">
	<path
   d="m 203.8,179.91 c -0.27,-0.75 -0.67,-1.42 -1.65,-1.42 h -1.1 v -0.77 h 6.37 v 0.77 h -1.3 c -0.87,0 -1.2,0.5 -1.2,0.88 0,0.17 0.05,0.35 0.15,0.55 l 5.47,14.35 5.72,-14.22 c 0.1,-0.25 0.15,-0.45 0.15,-0.65 0,-0.67 -0.68,-0.9 -1.23,-0.9 h -1.22 v -0.77 h 5.82 v 0.77 h -1.02 c -0.85,0 -1.2,0.3 -1.65,1.55 l -6.42,16.1 h -0.75 z"
   id="path25" />
	<path
   d="m 223.38,186.54 c 0,-0.67 -1.05,-0.67 -1.92,-0.65 v -0.77 c 0.92,0 1.97,-0.33 3.17,-0.97 v 10.15 c 0,0.7 0.57,0.9 1.05,0.9 h 1.5 v 0.77 h -6.4 v -0.77 h 1.5 c 0.55,0 1.1,-0.25 1.1,-0.9 z m 1.82,-7.93 c 0,0.65 -0.57,1.15 -1.17,1.15 -0.72,0 -1.07,-0.58 -1.07,-1.15 0,-0.65 0.4,-1.1 1.07,-1.1 0.65,0 1.17,0.45 1.17,1.1 z"
   id="path27" />
	<path
   d="m 228.95,192.39 c 0.62,1.2 1.32,2.03 2.17,2.47 0.85,0.53 1.75,0.78 2.6,0.78 1.4,0 2.7,-0.85 2.7,-2.3 0,-1.72 -1.15,-2.37 -2.87,-2.85 -1.97,-0.47 -3.25,-0.97 -3.77,-1.6 -0.47,-0.5 -0.72,-1.2 -0.72,-2 0,-1.25 1.27,-2.97 3.6,-2.97 0.95,0 1.85,0.25 2.67,0.72 l 0.52,-0.57 h 0.25 l 1.27,3.3 h -0.47 c -0.95,-1.52 -2.1,-2.67 -4.25,-2.67 -1.6,0 -2.45,1.05 -2.45,2.2 0,1.3 0.92,1.8 3.35,2.32 2.37,0.62 4.02,1.3 4.02,3.92 0,1.55 -1.32,3.27 -3.85,3.27 -0.97,0 -2.02,-0.35 -3.12,-1.05 l -0.62,0.67 h -0.4 l -1.05,-3.52 z"
   id="path29" />
	<path
   d="m 245.13,196.49 c -4.17,0 -5.67,-3.55 -5.67,-6.22 0,-4.8 3.42,-6.5 5.67,-6.5 2.85,0 5.52,2.12 5.52,6.5 0,2.77 -1.57,6.22 -5.52,6.22 z m 2.97,-10.55 c -0.77,-0.9 -1.77,-1.37 -2.97,-1.37 -1.23,0 -2.25,0.47 -3.1,1.4 -0.8,0.9 -1.17,2.35 -1.17,4.3 0,1.82 0.67,5.42 4.27,5.42 3.27,0 4.1,-3.32 4.1,-5.42 0,-1.98 -0.38,-3.43 -1.13,-4.33 z"
   id="path31" />
	<path
   d="m 253.83,186.51 c 0,-0.53 -0.38,-0.67 -2,-0.67 v -0.77 c 0.92,0 2.02,-0.33 3.27,-0.92 v 2.45 c 0.45,-0.62 1.85,-2.45 3.95,-2.45 0.85,0 1.92,0.17 1.92,1.42 0,0.48 -0.35,0.75 -0.85,0.75 -0.42,0 -0.75,-0.17 -1,-0.5 -0.25,-0.32 -0.58,-0.45 -1.02,-0.45 -1.12,0 -2.2,1.02 -3,2.82 v 5.97 c 0,0.8 0.2,1.02 0.92,1.02 h 0.92 v 0.77 h -5.07 v -0.77 c 1.45,0 1.95,0 1.95,-1.02 v -7.65 z"
   id="path33" />
	<path
   d="m 263.7,179.76 c 0,-0.75 -0.25,-1.28 -1.02,-1.28 h -1.55 v -0.77 h 14.2 l 1.65,4.7 h -0.65 c -1.17,-2.4 -2.27,-3.92 -4.7,-3.92 h -5.5 c -0.82,0 -1.17,0.53 -1.17,1.28 v 6.52 h 4.3 c 2.02,0 2.3,-0.75 2.3,-3.05 h 0.62 v 6.87 h -0.62 c 0,-2.57 -0.4,-3.05 -2.3,-3.05 h -4.3 v 7.02 c 0,0.82 0.65,1.1 1.15,1.1 h 1.5 v 0.77 h -6.47 v -0.77 h 1.6 c 0.58,0 0.98,-0.35 0.98,-1.1 v -14.32 z"
   id="path35" />
	<path
   d="m 283.78,196.49 c -4.17,0 -5.67,-3.55 -5.67,-6.22 0,-4.8 3.42,-6.5 5.67,-6.5 2.85,0 5.52,2.12 5.52,6.5 0,2.77 -1.58,6.22 -5.52,6.22 z m 2.97,-10.55 c -0.77,-0.9 -1.77,-1.37 -2.97,-1.37 -1.23,0 -2.25,0.47 -3.1,1.4 -0.8,0.9 -1.17,2.35 -1.17,4.3 0,1.82 0.67,5.42 4.27,5.42 3.27,0 4.1,-3.32 4.1,-5.42 0,-1.98 -0.38,-3.43 -1.13,-4.33 z"
   id="path37" />
	<path
   d="m 293.5,180.04 c 0,-0.25 -0.03,-0.42 -0.15,-0.52 -0.12,-0.12 -0.72,-0.17 -1.75,-0.17 v -0.78 c 0.9,0 1.97,-0.35 3.17,-1.02 v 16.55 c 0,0.58 0.12,1.1 0.88,1.1 h 1.65 v 0.77 H 291 v -0.77 h 1.47 c 1,0 1.02,-0.65 1.02,-1.1 v -14.06 z"
   id="path39" />
	<path
   d="m 299.98,180.16 c 0,-0.85 -0.55,-0.95 -1.9,-0.95 v -0.78 c 0.9,0 1.95,-0.27 3.17,-0.9 v 12.6 l 4.47,-3.92 c 0.33,-0.3 0.5,-0.58 0.5,-0.75 0,-0.42 -0.4,-0.38 -0.52,-0.38 h -0.95 v -0.77 h 5.37 v 0.77 h -0.78 c -0.82,0 -1.67,0.22 -2.52,1.12 l -2.5,2.17 4.07,5.6 c 0.82,1.2 1.12,1.2 2.15,1.2 v 0.77 h -5.05 v -0.77 h 1.15 c 0.2,-0.03 0.58,-0.05 0.58,-0.35 0,-0.1 -0.03,-0.2 -0.1,-0.33 l -3.75,-5.3 -2.12,1.88 v 3.07 c 0,0.72 0.45,1.02 0.88,1.02 h 0.95 v 0.77 h -4.97 v -0.77 h 1 c 0.67,0 0.88,-0.42 0.88,-1.02 v -13.98 z"
   id="path41" />
	<path
   d="m 311.53,192.39 c 0.62,1.2 1.32,2.03 2.17,2.47 0.85,0.53 1.75,0.78 2.6,0.78 1.4,0 2.7,-0.85 2.7,-2.3 0,-1.72 -1.15,-2.37 -2.87,-2.85 -1.97,-0.47 -3.25,-0.97 -3.77,-1.6 -0.47,-0.5 -0.72,-1.2 -0.72,-2 0,-1.25 1.27,-2.97 3.6,-2.97 0.95,0 1.85,0.25 2.67,0.72 l 0.53,-0.57 h 0.25 l 1.27,3.3 h -0.47 c -0.95,-1.52 -2.1,-2.67 -4.25,-2.67 -1.6,0 -2.45,1.05 -2.45,2.2 0,1.3 0.92,1.8 3.35,2.32 2.37,0.62 4.02,1.3 4.02,3.92 0,1.55 -1.33,3.27 -3.85,3.27 -0.97,0 -2.02,-0.35 -3.12,-1.05 l -0.62,0.67 h -0.4 l -1.05,-3.52 z"
   id="path43" />
</g><circle
     class="st4"
     cx="551.13898"
     cy="128.11913"
     r="4.2199998"
     id="circle47" /></g>
</svg>
